{
	"asset":{
		"generator":"Khronos glTF Blender I/O v4.0.44",
		"version":"2.0"
	},
	"extensionsUsed":[
		"KHR_lights_punctual"
	],
	"extensionsRequired":[
		"KHR_lights_punctual"
	],
	"extensions":{
		"KHR_lights_punctual":{
			"lights":[
				{
					"color":[
						1,
						1,
						1
					],
					"intensity":79.57747154594767,
					"type":"point",
					"name":"Light"
				}
			]
		}
	},
	"scene":0,
	"scenes":[
		{
			"extras":{
				"sb_state":{
					"action_preview":null,
					"action_preview_enabled":0
				}
			},
			"name":"Scene",
			"nodes":[
				0,
				1,
				7
			]
		}
	],
	"nodes":[
		{
			"extensions":{
				"KHR_lights_punctual":{
					"light":0
				}
			},
			"name":"Light",
			"rotation":[
				-0.28416627645492554,
				0.7269423007965088,
				0.34203392267227173,
				0.5232754945755005
			],
			"translation":[
				4.076245307922363,
				5.903861999511719,
				-1.0054539442062378
			]
		},
		{
			"camera":0,
			"name":"Camera",
			"rotation":[
				-0.20997299253940582,
				0.3857799470424652,
				0.09062844514846802,
				0.8937962055206299
			],
			"translation":[
				7.358891487121582,
				4.958309173583984,
				6.925790786743164
			]
		},
		{
			"name":"Bone.002",
			"translation":[
				0,
				1.1050362586975098,
				0
			]
		},
		{
			"children":[
				2
			],
			"name":"Bone.001",
			"translation":[
				0,
				1.155807375907898,
				0
			]
		},
		{
			"children":[
				3
			],
			"name":"Bone",
			"translation":[
				0,
				-0.06436246633529663,
				0
			]
		},
		{
			"name":"Bone.003",
			"rotation":[
				0,
				0.7071067690849304,
				0.7071067690849304,
				0
			],
			"translation":[
				0,
				-0.06436246633529663,
				0
			]
		},
		{
			"mesh":0,
			"name":"Cube",
			"skin":0
		},
		{
			"children":[
				6,
				4,
				5
			],
			"name":"Armature",
			"translation":[
				0.00803316943347454,
				0.24283963441848755,
				0.020469553768634796
			]
		}
	],
	"cameras":[
		{
			"name":"Camera",
			"perspective":{
				"aspectRatio":1.7777777777777777,
				"yfov":0.39959648408210363,
				"zfar":100,
				"znear":0.10000000149011612
			},
			"type":"perspective"
		}
	],
	"animations":[
		{
			"channels":[
				{
					"sampler":0,
					"target":{
						"node":4,
						"path":"translation"
					}
				},
				{
					"sampler":1,
					"target":{
						"node":4,
						"path":"rotation"
					}
				},
				{
					"sampler":2,
					"target":{
						"node":4,
						"path":"scale"
					}
				},
				{
					"sampler":3,
					"target":{
						"node":3,
						"path":"translation"
					}
				},
				{
					"sampler":4,
					"target":{
						"node":3,
						"path":"rotation"
					}
				},
				{
					"sampler":5,
					"target":{
						"node":3,
						"path":"scale"
					}
				},
				{
					"sampler":6,
					"target":{
						"node":2,
						"path":"translation"
					}
				},
				{
					"sampler":7,
					"target":{
						"node":2,
						"path":"rotation"
					}
				},
				{
					"sampler":8,
					"target":{
						"node":2,
						"path":"scale"
					}
				},
				{
					"sampler":9,
					"target":{
						"node":5,
						"path":"translation"
					}
				},
				{
					"sampler":10,
					"target":{
						"node":5,
						"path":"rotation"
					}
				},
				{
					"sampler":11,
					"target":{
						"node":5,
						"path":"scale"
					}
				}
			],
			"name":"idle",
			"samplers":[
				{
					"input":7,
					"interpolation":"STEP",
					"output":8
				},
				{
					"input":7,
					"interpolation":"STEP",
					"output":9
				},
				{
					"input":10,
					"interpolation":"LINEAR",
					"output":11
				},
				{
					"input":7,
					"interpolation":"LINEAR",
					"output":12
				},
				{
					"input":7,
					"interpolation":"STEP",
					"output":13
				},
				{
					"input":7,
					"interpolation":"STEP",
					"output":14
				},
				{
					"input":7,
					"interpolation":"LINEAR",
					"output":15
				},
				{
					"input":7,
					"interpolation":"STEP",
					"output":16
				},
				{
					"input":7,
					"interpolation":"STEP",
					"output":17
				},
				{
					"input":7,
					"interpolation":"STEP",
					"output":18
				},
				{
					"input":7,
					"interpolation":"STEP",
					"output":19
				},
				{
					"input":10,
					"interpolation":"LINEAR",
					"output":20
				}
			]
		},
		{
			"channels":[
				{
					"sampler":0,
					"target":{
						"node":4,
						"path":"translation"
					}
				},
				{
					"sampler":1,
					"target":{
						"node":4,
						"path":"rotation"
					}
				},
				{
					"sampler":2,
					"target":{
						"node":4,
						"path":"scale"
					}
				},
				{
					"sampler":3,
					"target":{
						"node":3,
						"path":"translation"
					}
				},
				{
					"sampler":4,
					"target":{
						"node":3,
						"path":"rotation"
					}
				},
				{
					"sampler":5,
					"target":{
						"node":3,
						"path":"scale"
					}
				},
				{
					"sampler":6,
					"target":{
						"node":2,
						"path":"translation"
					}
				},
				{
					"sampler":7,
					"target":{
						"node":2,
						"path":"rotation"
					}
				},
				{
					"sampler":8,
					"target":{
						"node":2,
						"path":"scale"
					}
				},
				{
					"sampler":9,
					"target":{
						"node":5,
						"path":"translation"
					}
				},
				{
					"sampler":10,
					"target":{
						"node":5,
						"path":"rotation"
					}
				},
				{
					"sampler":11,
					"target":{
						"node":5,
						"path":"scale"
					}
				}
			],
			"name":"jump_rl",
			"samplers":[
				{
					"input":21,
					"interpolation":"STEP",
					"output":22
				},
				{
					"input":21,
					"interpolation":"STEP",
					"output":23
				},
				{
					"input":24,
					"interpolation":"LINEAR",
					"output":25
				},
				{
					"input":21,
					"interpolation":"STEP",
					"output":26
				},
				{
					"input":24,
					"interpolation":"LINEAR",
					"output":27
				},
				{
					"input":21,
					"interpolation":"LINEAR",
					"output":28
				},
				{
					"input":21,
					"interpolation":"LINEAR",
					"output":29
				},
				{
					"input":24,
					"interpolation":"LINEAR",
					"output":30
				},
				{
					"input":21,
					"interpolation":"STEP",
					"output":31
				},
				{
					"input":21,
					"interpolation":"STEP",
					"output":32
				},
				{
					"input":21,
					"interpolation":"STEP",
					"output":33
				},
				{
					"input":24,
					"interpolation":"LINEAR",
					"output":34
				}
			]
		},
		{
			"channels":[
				{
					"sampler":0,
					"target":{
						"node":4,
						"path":"translation"
					}
				},
				{
					"sampler":1,
					"target":{
						"node":4,
						"path":"rotation"
					}
				},
				{
					"sampler":2,
					"target":{
						"node":4,
						"path":"scale"
					}
				},
				{
					"sampler":3,
					"target":{
						"node":3,
						"path":"translation"
					}
				},
				{
					"sampler":4,
					"target":{
						"node":3,
						"path":"rotation"
					}
				},
				{
					"sampler":5,
					"target":{
						"node":3,
						"path":"scale"
					}
				},
				{
					"sampler":6,
					"target":{
						"node":2,
						"path":"translation"
					}
				},
				{
					"sampler":7,
					"target":{
						"node":2,
						"path":"rotation"
					}
				},
				{
					"sampler":8,
					"target":{
						"node":2,
						"path":"scale"
					}
				},
				{
					"sampler":9,
					"target":{
						"node":5,
						"path":"translation"
					}
				},
				{
					"sampler":10,
					"target":{
						"node":5,
						"path":"rotation"
					}
				},
				{
					"sampler":11,
					"target":{
						"node":5,
						"path":"scale"
					}
				}
			],
			"name":"Jumpstart",
			"samplers":[
				{
					"input":35,
					"interpolation":"STEP",
					"output":36
				},
				{
					"input":35,
					"interpolation":"STEP",
					"output":37
				},
				{
					"input":38,
					"interpolation":"LINEAR",
					"output":39
				},
				{
					"input":35,
					"interpolation":"LINEAR",
					"output":40
				},
				{
					"input":35,
					"interpolation":"STEP",
					"output":41
				},
				{
					"input":35,
					"interpolation":"LINEAR",
					"output":42
				},
				{
					"input":35,
					"interpolation":"STEP",
					"output":43
				},
				{
					"input":35,
					"interpolation":"STEP",
					"output":44
				},
				{
					"input":35,
					"interpolation":"LINEAR",
					"output":45
				},
				{
					"input":35,
					"interpolation":"STEP",
					"output":46
				},
				{
					"input":35,
					"interpolation":"STEP",
					"output":47
				},
				{
					"input":38,
					"interpolation":"LINEAR",
					"output":48
				}
			]
		},
		{
			"channels":[
				{
					"sampler":0,
					"target":{
						"node":4,
						"path":"translation"
					}
				},
				{
					"sampler":1,
					"target":{
						"node":4,
						"path":"rotation"
					}
				},
				{
					"sampler":2,
					"target":{
						"node":4,
						"path":"scale"
					}
				},
				{
					"sampler":3,
					"target":{
						"node":3,
						"path":"translation"
					}
				},
				{
					"sampler":4,
					"target":{
						"node":3,
						"path":"rotation"
					}
				},
				{
					"sampler":5,
					"target":{
						"node":3,
						"path":"scale"
					}
				},
				{
					"sampler":6,
					"target":{
						"node":2,
						"path":"translation"
					}
				},
				{
					"sampler":7,
					"target":{
						"node":2,
						"path":"rotation"
					}
				},
				{
					"sampler":8,
					"target":{
						"node":2,
						"path":"scale"
					}
				},
				{
					"sampler":9,
					"target":{
						"node":5,
						"path":"translation"
					}
				},
				{
					"sampler":10,
					"target":{
						"node":5,
						"path":"rotation"
					}
				},
				{
					"sampler":11,
					"target":{
						"node":5,
						"path":"scale"
					}
				}
			],
			"name":"Run",
			"samplers":[
				{
					"input":49,
					"interpolation":"STEP",
					"output":50
				},
				{
					"input":49,
					"interpolation":"STEP",
					"output":51
				},
				{
					"input":52,
					"interpolation":"LINEAR",
					"output":53
				},
				{
					"input":49,
					"interpolation":"LINEAR",
					"output":54
				},
				{
					"input":52,
					"interpolation":"LINEAR",
					"output":55
				},
				{
					"input":49,
					"interpolation":"STEP",
					"output":56
				},
				{
					"input":49,
					"interpolation":"LINEAR",
					"output":57
				},
				{
					"input":52,
					"interpolation":"LINEAR",
					"output":58
				},
				{
					"input":49,
					"interpolation":"LINEAR",
					"output":59
				},
				{
					"input":49,
					"interpolation":"STEP",
					"output":60
				},
				{
					"input":49,
					"interpolation":"STEP",
					"output":61
				},
				{
					"input":52,
					"interpolation":"LINEAR",
					"output":62
				}
			]
		}
	],
	"materials":[
		{
			"doubleSided":true,
			"name":"Material",
			"pbrMetallicRoughness":{
				"metallicFactor":0,
				"roughnessFactor":0.5
			}
		}
	],
	"meshes":[
		{
			"name":"Cube",
			"primitives":[
				{
					"attributes":{
						"POSITION":0,
						"NORMAL":1,
						"TEXCOORD_0":2,
						"JOINTS_0":3,
						"WEIGHTS_0":4
					},
					"indices":5,
					"material":0
				}
			]
		}
	],
	"skins":[
		{
			"inverseBindMatrices":6,
			"joints":[
				4,
				3,
				2,
				5
			],
			"name":"Armature"
		}
	],
	"accessors":[
		{
			"bufferView":0,
			"componentType":5126,
			"count":162,
			"max":[
				1,
				3.5114433765411377,
				1.1800490617752075
			],
			"min":[
				-1,
				0.24913716316223145,
				-1
			],
			"type":"VEC3"
		},
		{
			"bufferView":1,
			"componentType":5126,
			"count":162,
			"type":"VEC3"
		},
		{
			"bufferView":2,
			"componentType":5126,
			"count":162,
			"type":"VEC2"
		},
		{
			"bufferView":3,
			"componentType":5121,
			"count":162,
			"type":"VEC4"
		},
		{
			"bufferView":4,
			"componentType":5126,
			"count":162,
			"type":"VEC4"
		},
		{
			"bufferView":5,
			"componentType":5123,
			"count":360,
			"type":"SCALAR"
		},
		{
			"bufferView":6,
			"componentType":5126,
			"count":4,
			"type":"MAT4"
		},
		{
			"bufferView":7,
			"componentType":5126,
			"count":2,
			"max":[
				2.5
			],
			"min":[
				0.041666666666666664
			],
			"type":"SCALAR"
		},
		{
			"bufferView":8,
			"componentType":5126,
			"count":2,
			"type":"VEC3"
		},
		{
			"bufferView":9,
			"componentType":5126,
			"count":2,
			"type":"VEC4"
		},
		{
			"bufferView":10,
			"componentType":5126,
			"count":60,
			"max":[
				2.5
			],
			"min":[
				0.041666666666666664
			],
			"type":"SCALAR"
		},
		{
			"bufferView":11,
			"componentType":5126,
			"count":60,
			"type":"VEC3"
		},
		{
			"bufferView":12,
			"componentType":5126,
			"count":2,
			"type":"VEC3"
		},
		{
			"bufferView":13,
			"componentType":5126,
			"count":2,
			"type":"VEC4"
		},
		{
			"bufferView":14,
			"componentType":5126,
			"count":2,
			"type":"VEC3"
		},
		{
			"bufferView":15,
			"componentType":5126,
			"count":2,
			"type":"VEC3"
		},
		{
			"bufferView":16,
			"componentType":5126,
			"count":2,
			"type":"VEC4"
		},
		{
			"bufferView":17,
			"componentType":5126,
			"count":2,
			"type":"VEC3"
		},
		{
			"bufferView":18,
			"componentType":5126,
			"count":2,
			"type":"VEC3"
		},
		{
			"bufferView":19,
			"componentType":5126,
			"count":2,
			"type":"VEC4"
		},
		{
			"bufferView":20,
			"componentType":5126,
			"count":60,
			"type":"VEC3"
		},
		{
			"bufferView":21,
			"componentType":5126,
			"count":2,
			"max":[
				0.8333333333333334
			],
			"min":[
				0.041666666666666664
			],
			"type":"SCALAR"
		},
		{
			"bufferView":22,
			"componentType":5126,
			"count":2,
			"type":"VEC3"
		},
		{
			"bufferView":23,
			"componentType":5126,
			"count":2,
			"type":"VEC4"
		},
		{
			"bufferView":24,
			"componentType":5126,
			"count":20,
			"max":[
				0.8333333333333334
			],
			"min":[
				0.041666666666666664
			],
			"type":"SCALAR"
		},
		{
			"bufferView":25,
			"componentType":5126,
			"count":20,
			"type":"VEC3"
		},
		{
			"bufferView":26,
			"componentType":5126,
			"count":2,
			"type":"VEC3"
		},
		{
			"bufferView":27,
			"componentType":5126,
			"count":20,
			"type":"VEC4"
		},
		{
			"bufferView":28,
			"componentType":5126,
			"count":2,
			"type":"VEC3"
		},
		{
			"bufferView":29,
			"componentType":5126,
			"count":2,
			"type":"VEC3"
		},
		{
			"bufferView":30,
			"componentType":5126,
			"count":20,
			"type":"VEC4"
		},
		{
			"bufferView":31,
			"componentType":5126,
			"count":2,
			"type":"VEC3"
		},
		{
			"bufferView":32,
			"componentType":5126,
			"count":2,
			"type":"VEC3"
		},
		{
			"bufferView":33,
			"componentType":5126,
			"count":2,
			"type":"VEC4"
		},
		{
			"bufferView":34,
			"componentType":5126,
			"count":20,
			"type":"VEC3"
		},
		{
			"bufferView":35,
			"componentType":5126,
			"count":2,
			"max":[
				0.20833333333333334
			],
			"min":[
				0.041666666666666664
			],
			"type":"SCALAR"
		},
		{
			"bufferView":36,
			"componentType":5126,
			"count":2,
			"type":"VEC3"
		},
		{
			"bufferView":37,
			"componentType":5126,
			"count":2,
			"type":"VEC4"
		},
		{
			"bufferView":38,
			"componentType":5126,
			"count":5,
			"max":[
				0.20833333333333334
			],
			"min":[
				0.041666666666666664
			],
			"type":"SCALAR"
		},
		{
			"bufferView":39,
			"componentType":5126,
			"count":5,
			"type":"VEC3"
		},
		{
			"bufferView":40,
			"componentType":5126,
			"count":2,
			"type":"VEC3"
		},
		{
			"bufferView":41,
			"componentType":5126,
			"count":2,
			"type":"VEC4"
		},
		{
			"bufferView":42,
			"componentType":5126,
			"count":2,
			"type":"VEC3"
		},
		{
			"bufferView":43,
			"componentType":5126,
			"count":2,
			"type":"VEC3"
		},
		{
			"bufferView":44,
			"componentType":5126,
			"count":2,
			"type":"VEC4"
		},
		{
			"bufferView":45,
			"componentType":5126,
			"count":2,
			"type":"VEC3"
		},
		{
			"bufferView":46,
			"componentType":5126,
			"count":2,
			"type":"VEC3"
		},
		{
			"bufferView":47,
			"componentType":5126,
			"count":2,
			"type":"VEC4"
		},
		{
			"bufferView":48,
			"componentType":5126,
			"count":5,
			"type":"VEC3"
		},
		{
			"bufferView":49,
			"componentType":5126,
			"count":2,
			"max":[
				1.6666666666666667
			],
			"min":[
				0.041666666666666664
			],
			"type":"SCALAR"
		},
		{
			"bufferView":50,
			"componentType":5126,
			"count":2,
			"type":"VEC3"
		},
		{
			"bufferView":51,
			"componentType":5126,
			"count":2,
			"type":"VEC4"
		},
		{
			"bufferView":52,
			"componentType":5126,
			"count":40,
			"max":[
				1.6666666666666667
			],
			"min":[
				0.041666666666666664
			],
			"type":"SCALAR"
		},
		{
			"bufferView":53,
			"componentType":5126,
			"count":40,
			"type":"VEC3"
		},
		{
			"bufferView":54,
			"componentType":5126,
			"count":2,
			"type":"VEC3"
		},
		{
			"bufferView":55,
			"componentType":5126,
			"count":40,
			"type":"VEC4"
		},
		{
			"bufferView":56,
			"componentType":5126,
			"count":2,
			"type":"VEC3"
		},
		{
			"bufferView":57,
			"componentType":5126,
			"count":2,
			"type":"VEC3"
		},
		{
			"bufferView":58,
			"componentType":5126,
			"count":40,
			"type":"VEC4"
		},
		{
			"bufferView":59,
			"componentType":5126,
			"count":2,
			"type":"VEC3"
		},
		{
			"bufferView":60,
			"componentType":5126,
			"count":2,
			"type":"VEC3"
		},
		{
			"bufferView":61,
			"componentType":5126,
			"count":2,
			"type":"VEC4"
		},
		{
			"bufferView":62,
			"componentType":5126,
			"count":40,
			"type":"VEC3"
		}
	],
	"bufferViews":[
		{
			"buffer":0,
			"byteLength":1944,
			"byteOffset":0,
			"target":34962
		},
		{
			"buffer":0,
			"byteLength":1944,
			"byteOffset":1944,
			"target":34962
		},
		{
			"buffer":0,
			"byteLength":1296,
			"byteOffset":3888,
			"target":34962
		},
		{
			"buffer":0,
			"byteLength":648,
			"byteOffset":5184,
			"target":34962
		},
		{
			"buffer":0,
			"byteLength":2592,
			"byteOffset":5832,
			"target":34962
		},
		{
			"buffer":0,
			"byteLength":720,
			"byteOffset":8424,
			"target":34963
		},
		{
			"buffer":0,
			"byteLength":256,
			"byteOffset":9144
		},
		{
			"buffer":0,
			"byteLength":8,
			"byteOffset":9400
		},
		{
			"buffer":0,
			"byteLength":24,
			"byteOffset":9408
		},
		{
			"buffer":0,
			"byteLength":32,
			"byteOffset":9432
		},
		{
			"buffer":0,
			"byteLength":240,
			"byteOffset":9464
		},
		{
			"buffer":0,
			"byteLength":720,
			"byteOffset":9704
		},
		{
			"buffer":0,
			"byteLength":24,
			"byteOffset":10424
		},
		{
			"buffer":0,
			"byteLength":32,
			"byteOffset":10448
		},
		{
			"buffer":0,
			"byteLength":24,
			"byteOffset":10480
		},
		{
			"buffer":0,
			"byteLength":24,
			"byteOffset":10504
		},
		{
			"buffer":0,
			"byteLength":32,
			"byteOffset":10528
		},
		{
			"buffer":0,
			"byteLength":24,
			"byteOffset":10560
		},
		{
			"buffer":0,
			"byteLength":24,
			"byteOffset":10584
		},
		{
			"buffer":0,
			"byteLength":32,
			"byteOffset":10608
		},
		{
			"buffer":0,
			"byteLength":720,
			"byteOffset":10640
		},
		{
			"buffer":0,
			"byteLength":8,
			"byteOffset":11360
		},
		{
			"buffer":0,
			"byteLength":24,
			"byteOffset":11368
		},
		{
			"buffer":0,
			"byteLength":32,
			"byteOffset":11392
		},
		{
			"buffer":0,
			"byteLength":80,
			"byteOffset":11424
		},
		{
			"buffer":0,
			"byteLength":240,
			"byteOffset":11504
		},
		{
			"buffer":0,
			"byteLength":24,
			"byteOffset":11744
		},
		{
			"buffer":0,
			"byteLength":320,
			"byteOffset":11768
		},
		{
			"buffer":0,
			"byteLength":24,
			"byteOffset":12088
		},
		{
			"buffer":0,
			"byteLength":24,
			"byteOffset":12112
		},
		{
			"buffer":0,
			"byteLength":320,
			"byteOffset":12136
		},
		{
			"buffer":0,
			"byteLength":24,
			"byteOffset":12456
		},
		{
			"buffer":0,
			"byteLength":24,
			"byteOffset":12480
		},
		{
			"buffer":0,
			"byteLength":32,
			"byteOffset":12504
		},
		{
			"buffer":0,
			"byteLength":240,
			"byteOffset":12536
		},
		{
			"buffer":0,
			"byteLength":8,
			"byteOffset":12776
		},
		{
			"buffer":0,
			"byteLength":24,
			"byteOffset":12784
		},
		{
			"buffer":0,
			"byteLength":32,
			"byteOffset":12808
		},
		{
			"buffer":0,
			"byteLength":20,
			"byteOffset":12840
		},
		{
			"buffer":0,
			"byteLength":60,
			"byteOffset":12860
		},
		{
			"buffer":0,
			"byteLength":24,
			"byteOffset":12920
		},
		{
			"buffer":0,
			"byteLength":32,
			"byteOffset":12944
		},
		{
			"buffer":0,
			"byteLength":24,
			"byteOffset":12976
		},
		{
			"buffer":0,
			"byteLength":24,
			"byteOffset":13000
		},
		{
			"buffer":0,
			"byteLength":32,
			"byteOffset":13024
		},
		{
			"buffer":0,
			"byteLength":24,
			"byteOffset":13056
		},
		{
			"buffer":0,
			"byteLength":24,
			"byteOffset":13080
		},
		{
			"buffer":0,
			"byteLength":32,
			"byteOffset":13104
		},
		{
			"buffer":0,
			"byteLength":60,
			"byteOffset":13136
		},
		{
			"buffer":0,
			"byteLength":8,
			"byteOffset":13196
		},
		{
			"buffer":0,
			"byteLength":24,
			"byteOffset":13204
		},
		{
			"buffer":0,
			"byteLength":32,
			"byteOffset":13228
		},
		{
			"buffer":0,
			"byteLength":160,
			"byteOffset":13260
		},
		{
			"buffer":0,
			"byteLength":480,
			"byteOffset":13420
		},
		{
			"buffer":0,
			"byteLength":24,
			"byteOffset":13900
		},
		{
			"buffer":0,
			"byteLength":640,
			"byteOffset":13924
		},
		{
			"buffer":0,
			"byteLength":24,
			"byteOffset":14564
		},
		{
			"buffer":0,
			"byteLength":24,
			"byteOffset":14588
		},
		{
			"buffer":0,
			"byteLength":640,
			"byteOffset":14612
		},
		{
			"buffer":0,
			"byteLength":24,
			"byteOffset":15252
		},
		{
			"buffer":0,
			"byteLength":24,
			"byteOffset":15276
		},
		{
			"buffer":0,
			"byteLength":32,
			"byteOffset":15300
		},
		{
			"buffer":0,
			"byteLength":480,
			"byteOffset":15332
		}
	],
	"buffers":[
		{
			"byteLength":15812,
			"uri":"testcharbblend-a3019bd5987300195e6de7a08c5fcaef.bin"
		}
	]
}
